<svg width="160" height="130" viewBox="0 0 160 130" fill="none" xmlns="http://www.w3.org/2000/svg">
  <rect x="24" y="47" width="112" height="66" rx="10" fill="#A84F1F"/>
  <path d="M24 57C24 35 41 18 63 18H97C119 18 136 35 136 57V66H24V57Z" fill="#D9782D"/>
  <path d="M36 57C36 41 48 30 64 30H96C112 30 124 41 124 57V66H36V57Z" fill="#F2A93B"/>
  <rect x="20" y="60" width="120" height="18" rx="6" fill="#F4B400"/>
  <rect x="31" y="78" width="98" height="32" rx="6" fill="#C96525"/>
  <rect x="73" y="54" width="14" height="61" rx="4" fill="#FFE082"/>
  <rect x="66" y="68" width="28" height="29" rx="6" fill="#F6C344"/>
  <circle cx="80" cy="82" r="5" fill="#7A3D12"/>
  <path d="M30 99C44 108 58 111 72 109" stroke="#8F4319" stroke-width="5" stroke-linecap="round"/>
  <path d="M130 98C116 108 102 111 88 109" stroke="#8F4319" stroke-width="5" stroke-linecap="round"/>
  <path d="M43 43C51 32 62 27 80 27" stroke="#FFD36B" stroke-width="6" stroke-linecap="round"/>
</svg>
